HIERARCHY
ROOT Hips
{
	OFFSET 0.00000 0.00000 0.00000
	CHANNELS 6 Xposition Yposition Zposition Zrotation Yrotation Xrotation 
	JOINT RightUpLegDummy
	{
		OFFSET 0 0 0
		CHANNELS 3 Zrotation Yrotation Xrotation
		JOINT RightUpLeg
		{
			OFFSET -3.52197 -3.41223 0.04002
			CHANNELS 3 Zrotation Yrotation Xrotation
			JOINT RightLeg
			{
				OFFSET 0.00006 -17.42390 1.60435
				CHANNELS 3 Zrotation Yrotation Xrotation
				JOINT RightFoot
				{
					OFFSET 0.06153 -16.50078 -1.63901
					CHANNELS 3 Zrotation Yrotation Xrotation
					JOINT RightToes
					{
						OFFSET 0.00298 -1.73825 3.34613
						CHANNELS 3 Zrotation Yrotation Xrotation
						End Site
						{
							OFFSET 0.00480 -0.05416 3.85043
						}
					}
				}
			}
		}
	}
	JOINT SpineDummy
	{
		OFFSET 0 0 0
		CHANNELS 3 Zrotation Yrotation Xrotation
		JOINT Spine
		{
			OFFSET 0.00000 4.68130 0.00000
			CHANNELS 3 Zrotation Yrotation Xrotation
			JOINT Spine1
			{
				OFFSET -0.00000 10.10138 0.05002
				CHANNELS 3 Zrotation Yrotation Xrotation
				JOINT HEadDummy
				{
					OFFSET 0 0 0
					CHANNELS 3 Zrotation Yrotation Xrotation
					JOINT Head
					{
						OFFSET -0.00000 3.43865 0.00438
						CHANNELS 3 Zrotation Yrotation Xrotation
						End Site
						{
							OFFSET -0.11417 5.02924 0.98962
						}
					}
				}
				JOINT LeftShoulder1Dummy
				{
					OFFSET 0 0 0
					CHANNELS 3 Zrotation Yrotation Xrotation
					JOINT LeftShoulder1
					{
						OFFSET 3.53937 -0.14262 -0.08662
						CHANNELS 3 Zrotation Yrotation Xrotation
						JOINT LeftArm
						{
							OFFSET 4.04833 -0.00133 0.12681
							CHANNELS 3 Zrotation Yrotation Xrotation
							JOINT LeftForeArm
							{
								OFFSET 10.33880 -0.01036 -0.55515
								CHANNELS 3 Zrotation Yrotation Xrotation
								JOINT LeftHand
								{
									OFFSET 8.69677 0.07543 0.40060
									CHANNELS 3 Zrotation Yrotation Xrotation
									End Site
									{
										OFFSET 5.28377 -0.21905 0.59205
									}
								}
							}
						}
					}
				}
				JOINT RightShoulderDummy
				{
					OFFSET 0 0 0
					CHANNELS 3 Zrotation Yrotation Xrotation
					JOINT RightShoulder
					{
						OFFSET -3.53937 -0.14262 -0.08660
						CHANNELS 3 Zrotation Yrotation Xrotation
						JOINT RightArm
						{
							OFFSET -4.04833 -0.00133 0.12683
							CHANNELS 3 Zrotation Yrotation Xrotation
							JOINT RightForeArm
							{
								OFFSET -10.37987 -0.01039 -0.55511
								CHANNELS 3 Zrotation Yrotation Xrotation
								JOINT RightHand
								{
									OFFSET -8.67398 0.07538 0.40058
									CHANNELS 3 Zrotation Yrotation Xrotation
									End Site
									{
										OFFSET -5.24810 -0.21916 0.59204
									}
								}
							}
						}
					}
				}
			}
		}
	}
	JOINT LeftUpLegDummy
	{
		OFFSET 0 0 0
		CHANNELS 3 Zrotation Yrotation Xrotation
		JOINT LeftUpLeg
		{
			OFFSET 3.52197 -3.41223 0.04002
			CHANNELS 3 Zrotation Yrotation Xrotation
			JOINT LeftLeg
			{
				OFFSET -0.00012 -17.42399 1.60337
				CHANNELS 3 Zrotation Yrotation Xrotation
				JOINT LeftFoot
				{
					OFFSET -0.09972 -16.50070 -1.63802
					CHANNELS 3 Zrotation Yrotation Xrotation
					JOINT LeftToes
					{
						OFFSET -0.01575 -1.73823 3.34611
						CHANNELS 3 Zrotation Yrotation Xrotation
						End Site
						{
							OFFSET 0.03150 -0.01868 3.85031
						}
					}
				}
			}
		}
	}
}
MOTION
Frames: 8
Frame Time: 0.033333
-13.9981 38.8975 12.0463 -3.3165 -45.5951 -3.1218 0.0000 0.0000 0.0000 5.3736 -1.7683 0.3836 1.5500 0.6749 18.6067 -2.0783 -0.1255 -15.1415 0.0000 -0.0000 0.0000 0.0000 0.0000 0.0000 2.6588 0.9434 11.1663 3.2702 0.5471 -2.1706 -0.0000 0.0000 -0.0000 1.7142 4.1046 -5.0410 -0.0000 0.0000 -0.0000 -33.9688 -2.6369 2.4562 -46.7949 -16.8783 -11.5724 -12.7655 1.5663 37.3424 11.7303 -6.0450 -1.1076 -0.0000 0.0000 -0.0000 34.7691 5.2036 3.5516 37.4504 13.4937 -7.3456 9.2093 11.9353 16.4128 -13.8099 3.3767 -1.0181 0.0000 0.0000 0.0000 3.6605 -1.1399 -19.2176 13.0366 17.1559 31.6934 0.7712 0.0005 -5.9949 0.0000 0.0000 -0.0000
-14.6828 38.9447 12.7406 -2.8314 -46.0170 -3.3697 0.0000 0.0000 0.0000 5.1388 -1.8962 2.4743 1.2833 1.0020 17.4315 -3.2857 -0.1804 -15.6372 0.0000 -0.0000 0.0000 0.0000 0.0000 0.0000 2.0474 1.0915 11.0113 3.2141 0.6666 -1.8790 -0.0000 0.0000 -0.0000 1.7619 4.1015 -5.2584 -0.0000 0.0000 -0.0000 -33.9490 -2.6313 2.4527 -46.2508 -16.8379 -12.7084 -12.4471 3.3063 37.8711 12.0000 -5.8694 -1.1176 -0.0000 0.0000 -0.0000 34.8941 5.2254 3.5716 37.5760 13.2046 -8.0034 9.3910 11.4545 17.5752 -13.5136 3.6206 -1.0222 0.0000 0.0000 0.0000 3.1711 -0.9263 -19.5451 9.0211 15.7732 23.7011 0.3487 0.0036 -4.2412 0.0000 0.0000 -0.0000
-15.3751 39.0000 13.4773 -2.5786 -46.4093 -3.4346 0.0000 0.0000 0.0000 4.9577 -1.9515 4.8217 1.0335 1.5729 15.7916 -3.0291 -0.1829 -16.0171 0.0000 -0.0000 0.0000 0.0000 0.0000 0.0000 1.7500 1.2005 10.6633 2.9404 0.7969 -1.4011 -0.0000 0.0000 -0.0000 1.8914 4.0677 -5.4651 -0.0000 0.0000 -0.0000 -33.8125 -2.6236 2.4412 -45.7567 -16.8170 -14.2769 -11.9043 5.2497 39.0865 12.2749 -5.5624 -1.1143 -0.0000 0.0000 -0.0000 35.0426 5.2482 3.5941 37.7678 12.6391 -9.2628 9.6615 10.6393 19.0537 -13.2305 3.3497 -0.9710 0.0000 0.0000 0.0000 2.4920 0.3568 -19.2532 5.6148 13.7756 15.6606 -0.1882 0.0304 -2.4907 0.0000 0.0000 -0.0000
-16.0667 39.0541 14.2559 -2.3093 -46.7809 -3.4672 0.0000 0.0000 0.0000 4.7180 -1.9561 7.2783 0.6799 1.9677 13.9131 -3.1434 -0.1907 -16.1119 0.0000 -0.0000 0.0000 0.0000 0.0000 0.0000 1.4642 1.2838 10.2552 2.6974 0.9022 -1.0414 -0.0000 0.0000 -0.0000 1.9710 4.0677 -5.4307 -0.0000 0.0000 -0.0000 -33.8331 -2.5946 2.4309 -45.1077 -16.5735 -16.0989 -11.1719 5.3262 41.1475 12.5688 -5.1438 -1.1001 -0.0000 0.0000 -0.0000 35.1672 5.2740 3.6158 37.9557 11.8245 -10.7426 10.0375 9.4932 20.3506 -13.0320 2.8925 -0.9078 0.0000 0.0000 0.0000 1.8849 1.4656 -18.4228 2.9424 12.2901 8.0080 -1.5793 0.1439 -1.5420 0.0000 0.0000 -0.0000
-16.7834 39.0313 15.1069 -1.9341 -47.1449 -3.4638 0.0000 0.0000 0.0000 4.2820 -2.0125 9.2986 0.4118 2.0664 12.8685 -3.8357 -0.2362 -16.5587 0.0000 -0.0000 0.0000 0.0000 0.0000 0.0000 1.0965 1.3744 9.7454 2.5564 1.0008 -0.9837 -0.0000 0.0000 -0.0000 1.9997 4.0538 -5.0316 -0.0000 0.0000 -0.0000 -34.0383 -2.5568 2.4284 -44.3652 -15.9512 -18.1116 -10.2602 5.2551 43.5335 12.8719 -4.6368 -1.0754 -0.0000 0.0000 -0.0000 35.1995 5.2831 3.6225 38.1666 10.7286 -12.4109 10.4241 7.9772 21.8055 -13.0425 2.7228 -0.8908 0.0000 0.0000 0.0000 1.8645 0.8336 -17.4961 0.9755 11.9273 2.1778 -3.7669 0.3182 -1.9700 0.0000 0.0000 -0.0000
-17.5369 38.9196 16.0587 -1.6459 -47.5027 -3.3885 0.0000 0.0000 0.0000 3.6358 -2.1850 10.8453 0.4470 2.3089 13.0679 -3.7641 -0.2610 -17.3477 0.0000 -0.0000 0.0000 0.0000 0.0000 0.0000 0.9181 1.4654 9.1632 2.3422 1.1244 -1.0645 -0.0000 0.0000 -0.0000 2.0133 3.9878 -4.4684 -0.0000 0.0000 -0.0000 -34.2232 -2.5461 2.4355 -43.7976 -15.0079 -20.3003 -9.1201 5.2018 46.0175 13.0906 -4.0795 -1.0358 -0.0000 0.0000 -0.0000 35.1763 5.2742 3.6167 38.3963 9.3590 -14.1926 10.6012 6.2780 23.5729 -13.3325 2.8364 -0.9235 0.0000 0.0000 0.0000 1.4549 0.3440 -17.1136 0.4578 10.7813 0.2368 -4.8987 0.3730 -3.1410 0.0000 0.0000 -0.0000
-18.3163 38.7708 17.1082 -1.4461 -47.8746 -3.4643 0.0000 0.0000 0.0000 2.7891 -2.3310 12.2338 0.7605 2.9182 14.3829 -2.8229 -0.2227 -17.7070 0.0000 -0.0000 0.0000 0.0000 0.0000 0.0000 0.9048 1.5652 8.5174 2.1241 1.2584 -0.8781 -0.0000 0.0000 -0.0000 1.9323 3.9446 -4.0593 -0.0000 0.0000 -0.0000 -34.4049 -2.5802 2.4604 -43.4356 -13.8864 -22.4093 -7.9428 5.1561 48.0783 13.1860 -3.5527 -0.9876 -0.0000 0.0000 -0.0000 35.2864 5.2865 3.6317 38.3853 7.7611 -15.6175 10.5235 4.8039 24.9351 -13.8325 2.9187 -0.9685 0.0000 0.0000 0.0000 0.7935 -0.2135 -17.3128 1.1182 10.5359 2.5501 -3.5167 0.2653 -3.1870 0.0000 0.0000 -0.0000
-19.1090 38.6385 18.2194 -0.9308 -48.2169 -4.0449 0.0000 0.0000 0.0000 1.4882 -2.5849 13.4013 1.3564 3.8140 16.8736 -1.9743 -0.1638 -17.2331 0.0000 -0.0000 0.0000 0.0000 0.0000 0.0000 0.4881 1.6868 7.8192 2.2821 1.3375 -0.3876 -0.0000 0.0000 -0.0000 1.7100 4.0141 -3.8165 -0.0000 0.0000 -0.0000 -34.7391 -2.6250 2.4993 -43.1568 -12.6444 -24.0742 -7.0259 5.1237 49.4807 13.1389 -3.1443 -0.9407 -0.0000 0.0000 -0.0000 35.6675 5.3457 3.6906 37.8882 5.9251 -16.5162 10.4030 3.7313 25.3127 -14.3447 2.8308 -0.9954 0.0000 0.0000 0.0000 -0.1287 -0.7123 -17.3063 2.1753 11.4765 6.3408 -1.2170 0.1159 -0.8209 0.0000 0.0000 -0.0000
